# xmcd CD database file
#
# Track frame offsets:
#	150
#	16632
#	28200
#	44060
#	65777
#	82897
#
# Disc length: 1322 seconds
#
# Revision: 0
# Processed by: cddbd v1.5PL3 Copyright (c) Steve Scherf et al.
# Submitted via: CDex 1.50
#
DISCID=48052806
DTITLE=WAG - WAGGISH TRICKS
DYEAR=1999
DGENRE=Rock
TTITLE0=Turbojet
TTITLE1=Odyssey
TTITLE2=Again And Again
TTITLE3=Fly High
TTITLE4=Big T-Shirt
TTITLE5=Don't Let Go
EXTD=YEAR: 1999
EXTT0=
EXTT1=
EXTT2=
EXTT3=
EXTT4=
EXTT5=
PLAYORDER=
